<svg width="680" height="280" viewBox="0 0 680 280" xmlns="http://www.w3.org/2000/svg">

  <!-- Left bracket { -->
  <path d="M88,68 Q72,68 72,84 L72,118 Q72,140 56,140 Q72,140 72,162 L72,196 Q72,212 88,212"
        fill="none" stroke="#534AB7" stroke-width="4" stroke-linecap="round" stroke-linejoin="round"/>

  <!-- Right bracket } -->
  <path d="M192,68 Q208,68 208,84 L208,118 Q208,140 224,140 Q208,140 208,162 L208,196 Q208,212 192,212"
        fill="none" stroke="#534AB7" stroke-width="4" stroke-linecap="round" stroke-linejoin="round"/>

  <!-- Floor plan outer boundary -->
  <polyline points="104,92 176,92 176,188 104,188 104,92"
            fill="none" stroke="#3C3489" stroke-width="2.2" stroke-linejoin="round"/>

  <!-- Interior wall - horizontal -->
  <polyline points="104,148 152,148" fill="none" stroke="#3C3489" stroke-width="2.2" stroke-linecap="round"/>

  <!-- Interior wall - vertical -->
  <polyline points="152,92 152,148" fill="none" stroke="#3C3489" stroke-width="2.2" stroke-linecap="round"/>

  <!-- Door swing arc -->
  <path d="M104,188 A28,28 0 0,1 132,160" fill="none" stroke="#7F77DD" stroke-width="1.4"
        stroke-linecap="round" stroke-dasharray="3 3"/>
  <line x1="104" y1="160" x2="132" y2="160" stroke="#7F77DD" stroke-width="1.4" stroke-linecap="round"/>

  <!-- Window gap on top wall -->
  <line x1="128" y1="92" x2="158" y2="92" stroke="#AFA9EC" stroke-width="3.5" stroke-linecap="round"/>
  <line x1="128" y1="87" x2="128" y2="97" stroke="#AFA9EC" stroke-width="1.2"/>
  <line x1="158" y1="87" x2="158" y2="97" stroke="#AFA9EC" stroke-width="1.2"/>

  <!-- Grid dots -->
  <circle cx="120" cy="118" r="1.2" fill="#CECBF6"/>
  <circle cx="140" cy="118" r="1.2" fill="#CECBF6"/>
  <circle cx="160" cy="118" r="1.2" fill="#CECBF6"/>
  <circle cx="120" cy="168" r="1.2" fill="#CECBF6"/>
  <circle cx="160" cy="168" r="1.2" fill="#CECBF6"/>
  <circle cx="160" cy="108" r="1.2" fill="#CECBF6"/>

  <!-- bim -->
  <text x="252" y="152"
        font-family="'Courier New', Consolas, monospace"
        font-size="62" font-weight="700" fill="#26215C" letter-spacing="-1">bim</text>

  <!-- as -->
  <text x="253" y="186"
        font-family="'Courier New', Consolas, monospace"
        font-size="22" font-weight="400" fill="#888780">as </text>

  <!-- code -->
  <text x="295" y="186"
        font-family="'Courier New', Consolas, monospace"
        font-size="22" font-weight="700" fill="#0F6E56">code</text>

  <!-- Rule -->
  <line x1="252" y1="198" x2="510" y2="198" stroke="#D3D1C7" stroke-width="0.8"/>

  <!-- Tagline -->
  <text x="252" y="216"
        font-family="-apple-system, BlinkMacSystemFont, 'Segoe UI', sans-serif"
        font-size="11" fill="#B4B2A9" letter-spacing="0.6">PROGRAMMATIC BIM · PYTHON · IFC</text>

</svg>
